<?xml version="1.0" standalone="no"?>
<!DOCTYPE svg PUBLIC "-//W3C//DTD SVG 20010904//EN"
 "http://www.w3.org/TR/2001/REC-SVG-20010904/DTD/svg10.dtd">
<svg version="1.0" xmlns="http://www.w3.org/2000/svg"
 width="670.000000pt" height="179.000000pt" viewBox="0 0 670.000000 179.000000"
 preserveAspectRatio="xMidYMid meet">

<g transform="translate(0.000000,179.000000) scale(0.100000,-0.100000)"
fill="#000000" stroke="none">
<path d="M2180 920 l0 -740 30 0 30 0 0 740 0 740 -30 0 -30 0 0 -740z"/>
<path d="M581 1623 c-11 -10 -27 -36 -34 -58 -19 -54 -53 -67 -96 -36 -39 28
-77 22 -121 -19 -41 -38 -48 -80 -21 -125 18 -32 20 -40 9 -63 -9 -17 -24 -28
-46 -33 -56 -11 -72 -34 -72 -101 0 -66 17 -89 73 -98 22 -4 36 -13 45 -33 12
-24 11 -31 -8 -62 -27 -44 -20 -88 22 -126 46 -44 110 -46 140 -5 3 5 19 4 37
-4 23 -9 32 -21 37 -46 10 -54 47 -77 116 -72 32 2 60 7 63 10 4 3 14 28 24
54 12 37 24 51 45 59 17 6 30 6 34 0 20 -29 102 -48 102 -25 0 6 5 10 11 10
14 0 48 38 59 66 9 22 2 74 -10 74 -4 0 -11 12 -14 26 -10 37 17 74 52 74 45
0 72 37 72 96 0 60 -23 93 -71 103 -23 5 -38 15 -47 33 -11 23 -10 32 8 66 26
50 19 82 -28 123 -31 28 -40 31 -80 26 -24 -3 -48 -11 -53 -18 -6 -10 -15 -11
-36 -3 -20 7 -30 20 -38 48 -6 21 -22 47 -34 57 -31 25 -111 26 -140 2z m118
-70 c6 -21 11 -44 11 -50 0 -7 1 -13 3 -13 1 0 25 -8 53 -19 49 -17 76 -15 94
9 16 21 43 17 71 -8 29 -26 31 -30 18 -53 -8 -13 -21 -32 -29 -42 -15 -19 -15
-17 30 -107 4 -8 21 -17 38 -21 48 -10 63 -27 60 -68 -3 -34 -6 -37 -47 -47
-25 -6 -48 -17 -52 -25 -36 -75 -44 -119 -20 -119 4 0 13 -12 20 -26 10 -22 9
-30 -6 -46 -35 -39 -51 -41 -89 -12 l-35 27 -40 -21 c-23 -12 -47 -22 -54 -22
-7 0 -16 -15 -20 -32 -14 -69 -14 -69 -58 -66 -41 3 -42 4 -50 48 -8 43 -11
46 -61 66 -51 20 -78 18 -96 -6 -16 -23 -48 -19 -74 9 -25 26 -26 32 -16 52 7
13 19 32 27 41 13 14 13 21 -2 55 -28 64 -31 68 -56 71 -50 6 -69 23 -69 62 0
39 19 56 69 62 25 3 27 6 55 72 15 33 15 41 3 55 -8 9 -20 27 -27 39 -10 21
-9 27 11 48 27 29 48 30 89 5 28 -17 34 -17 68 -4 20 7 45 16 55 20 9 3 17 13
17 23 0 9 5 31 11 49 10 27 15 31 50 31 36 0 39 -2 48 -37z"/>
<path d="M613 1352 c-18 -2 -33 -7 -33 -13 0 -5 -4 -9 -10 -9 -18 0 -51 -34
-71 -72 -81 -157 132 -312 261 -189 69 65 74 166 12 230 -44 46 -90 61 -159
53z m110 -73 c66 -66 38 -183 -50 -205 -24 -6 -79 11 -99 31 -55 53 -40 160
26 188 25 11 107 1 123 -14z"/>
<path d="M1370 1553 c-40 -13 -107 -50 -129 -71 -13 -13 -29 -21 -35 -19 -7 3
-43 8 -79 12 -67 7 -67 7 -67 -17 0 -24 4 -26 91 -38 l91 -12 29 30 c36 37
109 72 149 72 35 0 35 1 15 -47 -9 -21 -18 -62 -21 -93 l-5 -55 54 -55 c52
-53 101 -134 128 -213 12 -34 17 -38 44 -36 73 5 85 -13 85 -132 0 -94 -11
-112 -73 -115 -41 -2 -41 -3 -62 -60 -31 -86 -50 -115 -120 -189 -90 -94 -101
-115 -111 -204 l-7 -61 -124 0 -124 0 2 28 c5 65 10 63 -113 60 l-113 -3 -3
-42 -3 -43 -125 0 -124 0 0 65 c0 81 -18 120 -94 198 -31 33 -56 63 -56 67 0
5 -6 15 -13 22 -12 13 -27 46 -57 133 -15 43 -20 50 -41 47 -13 -2 -25 -5 -26
-5 -4 -5 50 -152 68 -183 24 -44 33 -54 127 -158 28 -31 34 -47 43 -118 16
-118 16 -118 168 -118 161 0 167 2 183 54 l13 41 58 3 c52 3 57 1 57 -18 0
-24 18 -61 34 -72 13 -9 251 -10 283 -2 25 7 43 55 43 117 0 48 12 71 64 123
61 62 78 84 111 139 30 50 36 62 49 101 5 13 23 24 52 32 67 18 84 53 84 169
0 51 -5 103 -11 116 -12 27 -58 57 -88 57 -16 0 -30 19 -62 85 -27 54 -61 105
-96 141 -53 54 -55 59 -49 96 4 22 13 53 21 69 33 63 7 110 -61 108 -21 0 -46
-3 -54 -6z"/>
<path d="M3050 1230 c0 -49 1 -50 30 -50 29 0 30 1 30 50 0 49 -1 50 -30 50
-29 0 -30 -1 -30 -50z"/>
<path d="M3790 980 l0 -300 30 0 30 0 0 100 0 101 61 -3 60 -3 45 -84 c24 -46
49 -90 55 -98 14 -16 69 -18 69 -2 0 11 -39 88 -50 99 -3 3 -20 29 -38 58
l-32 54 22 41 c13 23 26 44 29 47 11 9 59 105 59 118 0 9 -10 12 -31 10 -25
-2 -35 -12 -57 -53 -15 -27 -31 -54 -35 -60 -5 -5 -17 -25 -27 -42 -18 -31
-23 -33 -75 -33 l-55 0 0 175 0 175 -30 0 -30 0 0 -300z"/>
<path d="M2821 1166 c-26 -42 -36 -46 -118 -46 -61 0 -67 -2 -99 -35 -30 -31
-34 -42 -34 -88 0 -34 7 -62 19 -81 17 -25 17 -31 5 -55 -17 -32 -17 -46 -3
-69 9 -15 6 -24 -20 -49 -26 -26 -31 -39 -31 -77 0 -44 11 -75 36 -103 36 -38
255 -44 311 -8 43 29 52 46 53 103 0 103 -42 132 -189 132 -99 0 -101 0 -107
25 -4 14 -3 29 0 33 4 3 53 9 110 12 109 6 125 13 153 68 27 51 7 147 -36 174
-20 12 -20 13 10 44 35 36 31 54 -11 54 -22 0 -33 -8 -49 -34z m-39 -92 c35
-5 49 -12 62 -34 22 -38 20 -72 -5 -104 -19 -24 -26 -26 -96 -26 -66 0 -78 3
-95 23 -16 17 -19 31 -14 65 10 73 44 90 148 76z m78 -356 c25 -28 26 -78 1
-109 -18 -22 -26 -24 -119 -24 -93 0 -102 2 -121 24 -28 33 -27 76 4 106 22
23 32 25 119 25 85 0 97 -2 116 -22z"/>
<path d="M4501 1183 c-32 -54 -39 -58 -126 -64 -77 -5 -87 -8 -109 -33 -40
-47 -41 -149 -2 -189 11 -11 11 -16 0 -32 -17 -23 -18 -67 -1 -84 8 -10 9 -15
1 -18 -37 -13 -48 -32 -51 -89 -7 -109 33 -142 172 -143 112 -1 162 10 192 43
31 34 40 100 20 148 -22 52 -65 68 -181 68 -109 0 -138 16 -100 54 12 12 37
16 101 16 128 0 163 28 163 131 0 55 -12 84 -43 110 -20 16 -20 16 6 45 15 16
27 34 27 41 0 20 -58 16 -69 -4z m2 -134 c25 -31 22 -93 -5 -119 -18 -16 -35
-20 -94 -20 -64 0 -75 3 -88 22 -20 29 -20 87 -1 115 27 39 156 41 188 2z m17
-327 c28 -23 32 -92 6 -117 -20 -20 -113 -31 -181 -21 -38 6 -50 13 -65 39
-22 36 -18 60 13 95 18 20 30 22 113 22 74 0 96 -4 114 -18z"/>
<path d="M1340 1138 c-26 -28 -27 -89 -2 -111 11 -10 35 -17 60 -17 34 0 44 5
62 30 16 22 20 38 15 57 -15 61 -94 85 -135 41z m80 -53 c0 -18 -5 -25 -19
-25 -11 0 -23 5 -26 10 -11 18 3 40 25 40 15 0 20 -7 20 -25z"/>
<path d="M3054 1107 c-2 -7 -3 -105 -2 -217 l3 -205 28 -3 27 -3 0 220 0 221
-25 0 c-14 0 -28 -6 -31 -13z"/>
<path d="M3276 1113 c-3 -4 -6 -102 -6 -220 l0 -213 29 0 30 0 3 169 3 169 29
26 c49 41 157 46 188 8 9 -10 15 -69 18 -191 l5 -176 30 0 30 0 3 155 c3 164
-4 211 -39 251 -19 22 -30 24 -119 27 -97 4 -98 4 -129 -27 l-31 -30 -6 24
c-6 24 -27 39 -38 28z"/>
<path d="M4745 1087 l-35 -35 0 -147 c0 -214 17 -235 189 -235 150 0 179 36
180 228 1 78 -4 123 -14 148 -27 65 -36 69 -167 72 l-118 4 -35 -35z m246 -36
c16 -20 19 -42 19 -156 0 -159 -4 -167 -104 -173 -73 -5 -122 15 -132 52 -3
13 -4 79 -2 146 3 109 5 123 23 133 36 22 59 26 119 23 47 -2 63 -7 77 -25z"/>
<path d="M5225 1107 c-3 -7 -4 -138 -3 -292 l3 -280 27 -3 c27 -3 27 -3 30 70
l3 73 115 5 c180 8 194 26 188 240 l-3 137 -34 33 -35 32 -97 -4 c-85 -3 -101
-6 -121 -26 -26 -23 -38 -21 -38 10 0 20 -28 25 -35 5z m236 -33 c20 -3 41
-15 48 -26 7 -11 15 -63 17 -115 11 -183 -4 -203 -148 -203 l-98 0 0 136 0
136 33 33 c40 40 79 50 148 39z"/>
<path d="M5734 1105 c-15 -38 2 -45 108 -45 128 0 148 -10 148 -76 l0 -44 -82
0 c-162 -1 -208 -29 -208 -126 0 -109 46 -148 164 -142 55 2 78 8 100 26 35
27 42 27 49 2 3 -11 13 -20 22 -20 15 0 16 19 13 189 l-3 189 -29 25 c-36 31
-65 37 -183 37 -74 0 -95 -3 -99 -15z m256 -270 c0 -35 -6 -52 -29 -77 -28
-31 -33 -33 -100 -33 -81 0 -100 14 -101 78 0 64 23 77 135 77 l95 0 0 -45z"/>
<path d="M6160 1101 c0 -11 5 -33 11 -48 6 -15 15 -37 19 -48 9 -26 24 -61 43
-105 20 -44 33 -78 63 -159 18 -50 21 -68 12 -85 -19 -37 -50 -65 -80 -71 -23
-5 -28 -12 -26 -28 2 -18 9 -22 34 -21 75 4 114 45 159 167 15 40 31 81 36 92
4 11 18 47 29 80 12 33 25 69 30 80 22 49 50 132 50 148 0 14 -7 18 -31 15
-32 -3 -32 -4 -92 -181 -33 -97 -64 -174 -69 -169 -4 4 -26 62 -49 128 -22 65
-47 133 -54 149 -7 17 -15 39 -17 50 -2 14 -12 21 -36 23 -26 3 -32 0 -32 -17z"/>
</g>
</svg>
