<svg id="SvgjsSvg1001" width="288" height="288" xmlns="http://www.w3.org/2000/svg" version="1.1" xmlns:xlink="http://www.w3.org/1999/xlink" xmlns:svgjs="http://svgjs.com/svgjs"><defs id="SvgjsDefs1002"></defs><g id="SvgjsG1008"><svg xmlns="http://www.w3.org/2000/svg" version="1.0" viewBox="0 0 2792 746" width="288" height="288"><g transform="matrix(.1 0 0 -.1 0 746)" fill="#1d5062" class="color000 svgShape"><path d="M9080 3835l0-3085 130 0 130 0 0 3085 0 3085-130 0-130 0 0-3085zM2563 6830c-22-5-65-19-93-31-60-26-116-94-162-195-14-32-40-88-56-124-63-142-153-196-263-158-19 6-65 31-104 55-119 74-196 88-302 55-114-36-270-169-329-282-27-51-29-64-29-161l0-106 57-114c31-63 60-126 63-141 15-60-48-171-118-212-23-14-80-34-126-46-106-27-148-48-194-99-59-65-72-126-72-326 1-205 16-258 92-325 44-38 145-80 194-80 39 0 129-42 155-73 37-44 74-125 74-164 0-21-23-78-62-153l-63-121 0-92c0-83 3-99 33-161 23-48 53-89 105-141 188-187 440-216 585-66 45 47 57 49 136 21 120-41 155-80 187-205 47-189 138-271 326-294 86-11 254-1 367 21 69 13 77 24 132 168 90 235 132 294 235 324 75 23 84 21 133-24 55-51 154-97 252-117 101-20 143-11 163 35 11 25 24 35 55 43 56 15 160 124 212 220 38 72 39 77 39 174-1 116-15 166-55 195-18 13-35 39-46 73-60 177 50 337 233 337 49 0 129 39 170 81 43 45 79 128 94 214 14 82 6 227-16 302-34 113-120 197-234 229-147 40-198 74-237 159-36 76-32 110 33 248 51 110 57 130 61 205 4 77 2 87-27 146-23 48-55 87-126 155-131 125-154 136-280 135-134-1-253-33-307-82l-39-35-53 12c-64 14-124 51-154 95-12 18-32 63-46 102-69 204-147 286-303 319-73 16-222 18-290 5zm291-240c34-34 77-185 101-350 5-32 9-36 58-52 28-9 105-35 170-58 134-47 238-61 303-40 21 7 61 34 89 60 84 79 115 86 203 45 68-31 202-161 202-194 0-29-53-123-115-206-66-89-79-117-71-159 4-20 44-111 90-204 81-162 85-168 132-194 27-14 81-34 119-43 173-43 225-100 225-249 0-90-21-151-59-170-14-8-75-28-136-45-163-48-198-70-236-149-105-223-143-384-103-440 8-12 24-22 34-22 21 0 57-43 87-105 28-57 35-90 23-120-14-36-106-132-159-167-81-51-128-37-293 88-53 41-102 74-107 74-6 0-70-31-143-69-73-38-162-79-198-91-105-35-115-51-159-250-24-108-49-156-89-171-29-12-171-4-235 12-20 5-44 20-52 33-9 13-27 76-40 140-13 64-31 131-40 150-22 46-73 80-193 127-239 94-346 88-440-22-68-79-165-70-268 24-73 66-114 123-114 156 0 31 73 163 124 226 68 82 67 102-1 265-67 158-113 240-145 260-16 10-63 23-105 30-144 23-211 61-245 138-30 67-22 194 15 251 40 60 112 92 260 116 90 14 107 35 198 246 41 94 64 162 67 194 3 48 1 53-56 129-69 91-112 170-112 207 0 52 117 177 187 200 64 21 122 3 283-86 59-33 70-36 120-32 66 6 376 118 403 146 13 12 25 48 33 98 17 99 48 199 74 241 31 51 69 63 187 60 94-3 105-5 127-28z" fill="#1d5062" class="color000 svgShape"></path><path d="M2546 5639 c-84 -11 -117 -26 -133 -60 -9 -19 -23 -28 -49 -32 -117-19 -309 -274 -349 -464 -43 -203 15 -412 159 -569 147 -162 334 -246 546
-246 111 1 169 13 265 57 192 88 349 279 399 486 35 142 12 334 -54 458 -88
165 -266 309 -440 356 -70 19 -254 27 -344 14z m280 -254 c137 -26 171 -41
215 -98 167 -210 154 -501 -29 -684 -106 -106 -234 -144 -372 -109 -97 24
-223 89 -263 136 -195 228 -139 617 105 739 56 29 69 31 164 31 56 0 137 -7
180 -15z" fill="#1d5062" class="color000 svgShape"></path><path d="M5760 6490c-140-25-451-187-594-309-91-77-109-83-192-66-80 16-420 55-482 55-57 0-82-26-82-84 0-64 15-95 53-111 47-19 165-40 457-79l255-34 100 98c144 141 294 233 478 295 133 44 277 45 277 1 0-8-20-65-44-128-53-135-82-264-101-448-24-218-38-181 144-372 87-91 186-202 219-245 156-205 276-431 382-715 50-134 52-135 223-140 162-4 203-17 243-77 50-77 59-142 59-441 0-318-8-365-74-431-44-45-84-57-223-69-60-5-120-16-137-25-38-19-63-67-126-240-72-198-162-374-254-495-44-58-163-195-266-305-360-386-395-455-444-879-12-98-21-182-21-187 0-5-222-9-511-9l-510 0 7 148c7 146 6 148-17 175-41 47-100 51-541 38-215-6-392-12-394-14-1-1-8-80-15-175l-12-172-512 0-512 0-6 233c-4 192-9 246-26 311-45 171-122 289-342 526-174 188-237 264-259 314-10 23-32 59-50 81-59 73-114 202-254 595-34 97-59 138-93 151-34 13-172-8-180-27-6-18 99-329 182-534 126-315 160-364 568-820 183-205 196-233 242-568 45-319 72-390 167-436 88-42 184-48 646-43 434 5 487 10 558 51 45 27 63 61 114 208l45 133 207 9c186 8 210 7 233-8 19-13 25-25 25-54 1-94 58-230 120-286 36-32 44-34 136-42 128-12 905-12 1008-1 69 8 82 13 117 44 77 70 116 201 129 438 13 240 38 288 282 542 193 202 284 311 373 448 139 214 221 366 260 485 10 30 27 68 37 83 24 34 108 77 208 107 99 29 143 53 200 106 54 51 93 128 118 236 13 59 16 129 16 368 0 435-18 509-147 612-65 51-164 98-220 105-101 11-139 51-243 255-184 364-284 511-506 747-133 140-158 182-158 263 0 78 44 245 98 368 44 101 46 109 47 202 0 91-2 99-30 140-21 30-48 52-90 73-57 28-67 30-190 32-71 1-150-2-175-7zM12743 5330c-25-10-29-25-37-127-9-109 3-240 25-266 15-20 27-22 104-22 80 0 88 2 107 24 18 23 19 38 16 197-2 125-7 177-16 186-16 16-167 22-199 8zM15790 4085l0-1255 130 0 130 0 0 418 0 418 63-3c297-15 430-23 432-25 1-2 62-115 135-253 172-322 257-474 283-503 42-45 208-69 267-39 20 10 25 20 23 47-2 42-138 318-197 397-49 67-132 196-230 361l-67 112 67 123c37 67 88 153 113 191 90 135 124 193 186 321 79 162 99 220 85 245-20 37-147 37-221-1-47-24-72-58-185-256-53-92-111-188-128-213-18-25-56-83-84-130-91-153-107-159-369-160l-173 0 0 730 0 730-130 0-130 0 0-1255zM11905 5001c-65-17-91-41-169-157-62-94-116-138-188-154-29-6-156-15-283-19-280-9-286-11-407-134-112-114-137-161-149-283-9-99 1-243 22-319 6-22 33-82 61-133 58-108 58-116 2-232-52-108-55-160-14-248 23-51 31-78 26-97-4-15-43-65-88-112-109-117-131-165-136-303-7-197 41-353 142-455 59-61 122-86 295-117 135-24 501-35 653-19 229 23 333 58 443 148 87 71 123 145 136 281 12 115 1 259-26 349-47 158-187 250-430 283-49 7-227 15-395 19-220 5-312 10-328 20-46 25-80 171-49 203 18 17 121 32 332 48 361 26 422 33 491 50 89 23 124 40 168 85 43 43 102 143 128 215 25 71 34 216 19 306-28 170-95 297-193 372-32 24-58 47-58 52 0 5 38 52 85 104 46 53 91 109 100 126 21 41 16 79-15 101-28 21-129 32-175 20zm-390-521c232-26 290-60 362-215 23-50 28-73 28-140 0-99-31-170-109-249-71-73-102-79-395-74-264 5-283 10-360 94-64 70-77 121-62 238 6 46 18 106 26 132 55 187 202 248 510 214zm291-1424c62-19 121-73 154-142 21-42 25-63 25-149 0-117-17-165-85-239-63-68-99-76-375-83-126-3-285-1-352 5-151 12-197 32-253 106-108 142-97 300 29 426 92 91 138 100 531 95 220-2 285-6 326-19zM18867 5000c-70-18-96-39-153-125-110-167-142-179-529-210-273-21-340-43-412-133-82-102-124-241-125-412-1-176 33-290 116-389 40-48 40-60-1-122-34-52-53-121-53-194 0-71 13-117 46-161 13-18 25-37 26-43 2-7-26-27-62-45-131-66-170-166-170-441 0-302 95-428 364-487 72-16 144-21 339-25 465-10 678 32 808 158 94 91 143 232 141 409-1 215-79 363-229 439-102 51-329 81-623 81-234 1-370 26-409 76-23 29-17 54 25 109 54 71 163 94 442 95 364 0 537 57 617 203 48 86 60 157 60 347 0 242-30 324-162 450-40 39-73 75-73 79 0 10 31 49 99 126 59 67 101 134 101 162 0 13-10 29-24 38-30 20-109 27-159 15zm-294-539c88-23 131-43 170-80 61-55 93-162 84-275-7-92-30-154-74-205-71-83-144-101-409-101-231 0-276 9-329 64-53 55-76 120-82 232-11 185 39 288 162 340 113 47 343 59 478 25zm137-1404c30-7 69-21 85-29 142-75 180-374 63-495-64-66-256-106-513-106-336-1-438 41-523 212-60 121-47 203 52 324 57 69 106 96 195 107 104 13 576 4 641-13z" fill="#1d5062" class="color000 svgShape"></path><path d="M5693 4824c-61-22-136-94-164-156-21-46-24-68-24-173 0-109 2-124 25-165 48-85 142-124 306-123 133 0 174 18 244 111 27 37 57 89 66 116 45 133-38 299-183 371-72 35-201 45-270 19zm197-224c15-15 20-33 20-75 0-47-4-60-26-81-21-22-31-25-62-19-84 16-114 53-95 118 18 65 120 100 163 57zM19766 4531l-148-149 5-513c3-283 11-552 17-599 37-294 123-405 352-457 109-25 660-25 768 0 334 77 422 308 407 1067-6 302-19 401-71 521-67 155-123 206-252 234-58 13-674 44-884 45-45 0-46-1-194-149zm831-62c100-14 159-43 200-100 61-85 66-121 70-551 7-548-10-662-104-734-52-40-99-51-281-66-285-24-485 34-560 161l-27 46-3 315c-4 359 10 680 33 757 9 31 26 60 42 73 39 30 141 78 203 94 67 18 314 21 427 5zM22775 4673c-33-1-156-7-274-13-254-12-335-28-394-76-52-42-128-94-138-94-20 0-38 36-45 86-4 34-14 64-25 75-21 21-69 25-99 9-43-23-44-40-43-945 1-473 4-1002 8-1177l7-316 96-7c141-11 134-27 152 374 5 118 11 215 12 216 2 2 161 10 353 19 385 18 474 27 583 57 230 62 302 176 321 509 5 81 5 337 0 580l-10 435-141 138-142 137-80-2c-45-1-108-3-141-5zm-87-193c171-22 260-79 287-184 33-129 48-334 49-641 1-283 0-304-21-370-37-117-104-177-233-211-53-14-130-18-412-21l-348-5 0 565 0 565 110 106c189 181 322 226 568 196zM12763 4653c-18-9-35-23-39-32-18-42-11-1747 7-1766 4-3 57-12 118-19l111-12 0 923 0 923-82-1c-55 0-94-6-115-16zM14097 4655c-37-12-71-39-152-117-67-64-106-95-109-87-3 8-12 41-21 74-21 74-76 135-123 135-16 0-35-6-41-14-18-22-30-510-31-1203l0-613 128 0 129 0 7 358c3 196 9 513 13 704l6 348 79 68c43 38 107 83 141 100 152 75 388 99 532 54 74-23 141-69 156-109 13-35 27-132 39-273 9-114 40-1002 40-1162l0-68 129 0 129 0 7 123c4 67 7 347 8 622 2 534-4 609-52 765-35 111-123 229-196 261-59 26-197 38-500 44-227 4-278 3-318-10zM23989 4660c-64-11-88-26-105-65-27-66-17-118 27-141 54-27 134-35 464-44 390-11 457-22 522-92 43-46 55-95 61-249l5-147-339-5c-367-5-462-15-599-64-156-56-236-150-266-309-15-80-5-332 16-409 49-177 153-275 342-322 81-20 395-22 506-4 116 20 156 38 295 136 35 25 69 45 77 45 22 0 44-28 55-70 20-75 113-119 142-67 10 17 13 179 11 787l-2 765-58 54c-146 135-243 180-431 200-115 12-651 13-723 1zm971-1102c-1-218-28-294-149-418-101-103-122-110-363-110-279 0-362 28-411 140-29 63-36 235-13 312 28 96 107 148 258 167 34 5 201 9 371 10l307 1 0-102zM25684 4656c-31-23-23-123 19-243 62-177 153-404 262-658 116-269 280-694 314-816 29-105 27-149-9-218-74-138-186-236-316-276-105-33-118-47-112-121 7-80 26-94 127-94 209 1 361 86 486 275 67 100 124 222 205 436 34 90 88 229 120 309 32 80 95 249 140 375 45 127 115 311 155 410 106 264 185 504 185 566 0 16-9 38-21 50-20 20-29 21-94 16-155-14-151-7-370-642-163-472-287-793-316-810-10-7-105 238-219 565-51 146-119 337-153 425-33 88-79 216-103 285-48 143-59 155-149 170-83 14-128 12-151-4z" fill="#1d5062" class="color000 svgShape"></path></g></svg></g></svg>